<svg id="flower_xA0_Image_1_" enable-background="new 0 0 146.16 219.36" version="1.1" viewBox="0 0 89.426 74.459" xml:space="preserve" xmlns="http://www.w3.org/2000/svg"><g clip-rule="evenodd" fill-rule="evenodd">
<path d="m9.7608 52.214c3.314 0.428 14.352-2.957 15.36-1.68 1.21 1.533-2.816 9.025-2.4 12.48 0.448 3.712 3.808 8.925 6.96 10.32 1.802 0.797 10.611 2.596 16.647-1.236 5.454-3.462 8.242-12.549 8.793-12.684 1.835-0.451 3.466 2.279 5.521 3.12 21.854 8.945 40.769-18.383 19.439-26.64-1.769-0.685-8.961-1.396-9.359-2.64-0.397-1.238 4.073-4.967 4.56-6 4.403-9.349-3.14-17.356-11.52-18-7.766-0.596-5.519-0.852-9.36-5.28-9.101-10.488-19.723 1.837-18.48 13.2 0.19 1.739 1.433 4.769 0.24 5.52-1.168 0.737-10.847-2.763-12.48-2.88-6.75-0.483-12.79 0.738-16.32 2.88-9.496 5.762-10.925 27.8 2.4 29.52zm39.36 12.48c-5.414 6.402-21.439 10.68-23.52-1.68-1.46-8.678 5.446-19.125 12.96-19.2 1.591-0.016 10.406 0.662 11.76 1.44 4.953 2.846 1.555 16.182-1.2 19.44zm3.84-26.16c-1.551 10.215-18.069-1.554-6.239-4.32 3.222-0.754 6.752 0.94 6.239 4.32zm34.32 9.12c0.26 12.62-24.833 18.655-30.479 7.44-1.77-3.514-6.061-15.163 0.239-17.04 3.044-0.907 7.129-0.81 11.04-0.96 8.32-0.319 19.03 2.322 19.2 10.56zm-26.64-35.28c7.556-1.74 14.446 3.207 12.72 11.52-1.049 5.049-10.417 13.066-17.04 12.24-4.651-0.58-2.796-6.63-1.68-9.36 2.109-5.159 2.201-13.526 6-14.4zm-15.84-9.12c4.58-0.888 10.087 2.381 9.84 8.16-0.164 3.835-4.655 7.525-4.8 13.2-0.092 3.573-0.563 9.445-6.48 6.72-6.091-2.806-6.58-26.525 1.44-28.08zm-36.72 22.32c2.696-2.041 5.628-2.311 10.08-2.64 10.654-0.788 28.974 4.91 20.4 17.04-2.617 3.702-18.793 9.536-24.72 9.84-13.95 0.715-13.235-18.583-5.76-24.24z" fill="#a7342d"/><g fill="#ddcd45">
<path d="m44.801 3.2545c4.58-0.888 10.087 2.381 9.84 8.16-0.164 3.835-4.655 7.525-4.8 13.2-0.092 3.573-0.563 9.445-6.48 6.72-6.091-2.806-6.58-26.525 1.44-28.08z"/>
<path d="m60.641 12.374c7.556-1.74 14.446 3.207 12.72 11.52-1.049 5.049-10.417 13.066-17.04 12.24-4.651-0.58-2.796-6.63-1.68-9.36 2.109-5.159 2.201-13.526 6-14.4z"/>
<path d="m18.161 22.934c10.654-0.788 28.974 4.91 20.4 17.04-2.617 3.702-18.793 9.536-24.72 9.84-13.95 0.715-13.235-18.583-5.76-24.24 2.697-2.041 5.629-2.311 10.08-2.64z"/>
</g><path d="m46.721 34.214c3.223-0.753 6.753 0.94 6.239 4.32-1.55 10.215-18.069-1.554-6.239-4.32z" fill="#fff"/>
<path d="m68.081 37.094c8.325-0.319 19.031 2.322 19.2 10.56 0.26 12.62-24.833 18.655-30.479 7.44-1.77-3.514-6.061-15.163 0.239-17.04 3.04-0.907 7.13-0.81 11.04-0.96z" fill="#ddcd45"/>
<path d="m38.561 43.814c1.591-0.016 10.406 0.662 11.76 1.44 4.953 2.846 1.555 16.183-1.2 19.44-5.414 6.402-21.439 10.68-23.52-1.68-1.46-8.678 5.446-19.124 12.96-19.2z" fill="#ddcd45"/>
</g></svg>
