<?xml version="1.0" encoding="UTF-8" standalone="no"?>
<svg
   xmlns:dc="http://purl.org/dc/elements/1.1/"
   xmlns:cc="http://creativecommons.org/ns#"
   xmlns:rdf="http://www.w3.org/1999/02/22-rdf-syntax-ns#"
   xmlns:svg="http://www.w3.org/2000/svg"
   xmlns="http://www.w3.org/2000/svg"
   xmlns:sodipodi="http://sodipodi.sourceforge.net/DTD/sodipodi-0.dtd"
   xmlns:inkscape="http://www.inkscape.org/namespaces/inkscape"
   id="flower_xA0_Image_1_"
   enable-background="new 0 0 146.16 219.36"
   xml:space="preserve"
   viewBox="0 0 89.426443 74.458595"
   version="1.1"
   y="0px"
   x="0px"
   sodipodi:docname="flower.svg"
   width="89.426445"
   height="74.458595"
   inkscape:version="1.0.2 (1.0.2+r75+1)"><defs
   id="defs31" /><sodipodi:namedview
   pagecolor="#ffffff"
   bordercolor="#666666"
   borderopacity="1"
   objecttolerance="10"
   gridtolerance="10"
   guidetolerance="10"
   inkscape:pageopacity="0"
   inkscape:pageshadow="2"
   inkscape:window-width="1875"
   inkscape:window-height="1029"
   id="namedview29"
   showgrid="false"
   fit-margin-top="0"
   fit-margin-left="0"
   fit-margin-right="0"
   fit-margin-bottom="0"
   inkscape:zoom="7.515306"
   inkscape:cx="48.017256"
   inkscape:cy="29.2013"
   inkscape:window-x="45"
   inkscape:window-y="27"
   inkscape:window-maximized="1"
   inkscape:current-layer="flower_xA0_Image_1_" />

<path
   fill="#ff6600"
   clip-rule="evenodd"
   d="m 9.7607563,52.214477 c 3.3139997,0.428 14.3519997,-2.957 15.3599997,-1.68 1.21,1.533 -2.816,9.025 -2.4,12.48 0.448,3.712 3.808,8.925 6.96,10.32 1.802,0.797 10.611,2.596 16.647,-1.236 5.454,-3.462 8.242,-12.549 8.793,-12.684 1.835,-0.451 3.466,2.279 5.521,3.12 21.854,8.945 40.769004,-18.383 19.439,-26.64 -1.769,-0.685 -8.961,-1.396 -9.359,-2.64 -0.397,-1.238 4.073,-4.967 4.56,-6 4.403,-9.349 -3.14,-17.3559996 -11.52,-17.9999996 -7.766,-0.596 -5.519,-0.852 -9.36,-5.28 -9.101,-10.488 -19.723,1.837 -18.48,13.1999996 0.19,1.739 1.433,4.769 0.24,5.52 -1.168,0.737 -10.847,-2.763 -12.48,-2.88 -6.75,-0.483 -12.79,0.738 -16.3199997,2.88 -9.496,5.762 -10.925,27.8 2.4,29.52 z m 39.3599997,12.48 c -5.414,6.402 -21.439,10.68 -23.52,-1.68 -1.46,-8.678 5.446,-19.125 12.96,-19.2 1.591,-0.016 10.406,0.662 11.76,1.44 4.953,2.846 1.555,16.182 -1.2,19.44 z m 3.84,-26.16 c -1.551,10.215 -18.069,-1.554 -6.239,-4.32 3.222,-0.754 6.752,0.94 6.239,4.32 z m 34.32,9.12 c 0.26,12.62 -24.833,18.655 -30.479,7.44 -1.77,-3.514 -6.061,-15.163 0.239,-17.04 3.044,-0.907 7.129,-0.81 11.04,-0.96 8.32,-0.319 19.03,2.322 19.2,10.56 z m -26.64,-35.28 c 7.556,-1.74 14.446,3.207 12.72,11.52 -1.049,5.049 -10.417,13.066 -17.04,12.24 -4.651,-0.58 -2.796,-6.63 -1.68,-9.36 2.109,-5.159 2.201,-13.526 6,-14.4 z m -15.84,-9.1199996 c 4.58,-0.888 10.087,2.381 9.84,8.1599996 -0.164,3.835 -4.655,7.525 -4.8,13.2 -0.092,3.573 -0.563,9.445 -6.48,6.72 -6.091,-2.806 -6.58,-26.5249996 1.44,-28.0799996 z M 8.0807563,25.574477 c 2.6959997,-2.041 5.6279997,-2.311 10.0799997,-2.64 10.654,-0.788 28.974,4.91 20.4,17.04 -2.617,3.702 -18.793,9.536 -24.72,9.84 -13.94999967,0.715 -13.23499967,-18.583 -5.7599997,-24.24 z"
   fill-rule="evenodd"
   id="path4"
   style="fill:#a7342d;fill-opacity:1" />
<path
   fill="#ffff66"
   clip-rule="evenodd"
   d="m 44.800756,3.2544774 c 4.58,-0.888 10.087,2.381 9.84,8.1599996 -0.164,3.835 -4.655,7.525 -4.8,13.2 -0.092,3.573 -0.563,9.445 -6.48,6.72 -6.091,-2.806 -6.58,-26.5249996 1.44,-28.0799996 z"
   fill-rule="evenodd"
   id="path6"
   style="fill:#ddcd45;fill-opacity:1" />
<path
   fill="#ffff66"
   clip-rule="evenodd"
   d="m 60.640756,12.374477 c 7.556,-1.74 14.446,3.207 12.72,11.52 -1.049,5.049 -10.417,13.066 -17.04,12.24 -4.651,-0.58 -2.796,-6.63 -1.68,-9.36 2.109,-5.159 2.201,-13.526 6,-14.4 z"
   fill-rule="evenodd"
   id="path8"
   style="fill:#ddcd45;fill-opacity:1" />
<path
   fill="#ffff66"
   clip-rule="evenodd"
   d="m 18.160756,22.934477 c 10.654,-0.788 28.974,4.91 20.4,17.04 -2.617,3.702 -18.793,9.536 -24.72,9.84 -13.94999967,0.715 -13.23499967,-18.583 -5.7599997,-24.24 2.6969997,-2.041 5.6289997,-2.311 10.0799997,-2.64 z"
   fill-rule="evenodd"
   id="path10"
   style="fill:#ddcd45;fill-opacity:1" />
<path
   fill="#ffffff"
   clip-rule="evenodd"
   d="m 46.720756,34.214477 c 3.223,-0.753 6.753,0.94 6.239,4.32 -1.55,10.215 -18.069,-1.554 -6.239,-4.32 z"
   fill-rule="evenodd"
   id="path12" />
<path
   fill="#ffff66"
   clip-rule="evenodd"
   d="m 68.080756,37.094477 c 8.325,-0.319 19.031,2.322 19.2,10.56 0.26,12.62 -24.833,18.655 -30.479,7.44 -1.77,-3.514 -6.061,-15.163 0.239,-17.04 3.04,-0.907 7.13,-0.81 11.04,-0.96 z"
   fill-rule="evenodd"
   id="path14"
   style="fill:#ddcd45;fill-opacity:1" />
<path
   fill="#ffff66"
   clip-rule="evenodd"
   d="m 38.560756,43.814477 c 1.591,-0.016 10.406,0.662 11.76,1.44 4.953,2.846 1.555,16.183 -1.2,19.44 -5.414,6.402 -21.439,10.68 -23.52,-1.68 -1.46,-8.678 5.446,-19.124 12.96,-19.2 z"
   fill-rule="evenodd"
   id="path16"
   style="fill:#ddcd45;fill-opacity:1" />




<metadata
   id="metadata26"><rdf:RDF><cc:Work><dc:format>image/svg+xml</dc:format><dc:type
         rdf:resource="http://purl.org/dc/dcmitype/StillImage" /><cc:license
         rdf:resource="http://creativecommons.org/publicdomain/zero/1.0/" /><dc:publisher><cc:Agent
           rdf:about="http://openclipart.org/"><dc:title>Openclipart</dc:title></cc:Agent></dc:publisher><dc:title></dc:title><dc:date>2010-01-18T23:01:19</dc:date><dc:description>A simple illustration of a flower.</dc:description><dc:source>https://openclipart.org/detail/28953/flower-by-jgm104</dc:source><dc:creator><cc:Agent><dc:title>jgm104</dc:title></cc:Agent></dc:creator><dc:subject><rdf:Bag><rdf:li>flower</rdf:li><rdf:li>green</rdf:li><rdf:li>illustration</rdf:li><rdf:li>petals</rdf:li><rdf:li>plant</rdf:li><rdf:li>unchecked</rdf:li><rdf:li>yellow</rdf:li></rdf:Bag></dc:subject></cc:Work><cc:License
       rdf:about="http://creativecommons.org/publicdomain/zero/1.0/"><cc:permits
         rdf:resource="http://creativecommons.org/ns#Reproduction" /><cc:permits
         rdf:resource="http://creativecommons.org/ns#Distribution" /><cc:permits
         rdf:resource="http://creativecommons.org/ns#DerivativeWorks" /></cc:License></rdf:RDF></metadata></svg>
